<svg id="visual" viewBox="0 0 960 540" width="960" height="540" xmlns="http://www.w3.org/2000/svg" xmlns:xlink="http://www.w3.org/1999/xlink" version="1.1"><path d="M0 198L22.8 201C45.7 204 91.3 210 137 209.8C182.7 209.7 228.3 203.3 274 203.5C319.7 203.7 365.3 210.3 411.2 217.2C457 224 503 231 548.8 231.7C594.7 232.3 640.3 226.7 686 216C731.7 205.3 777.3 189.7 823 180C868.7 170.3 914.3 166.7 937.2 164.8L960 163L960 0L937.2 0C914.3 0 868.7 0 823 0C777.3 0 731.7 0 686 0C640.3 0 594.7 0 548.8 0C503 0 457 0 411.2 0C365.3 0 319.7 0 274 0C228.3 0 182.7 0 137 0C91.3 0 45.7 0 22.8 0L0 0Z" fill="#000000"></path><path d="M0 218L22.8 213.7C45.7 209.3 91.3 200.7 137 186.5C182.7 172.3 228.3 152.7 274 147C319.7 141.3 365.3 149.7 411.2 151.3C457 153 503 148 548.8 153.3C594.7 158.7 640.3 174.3 686 183.8C731.7 193.3 777.3 196.7 823 188.8C868.7 181 914.3 162 937.2 152.5L960 143L960 0L937.2 0C914.3 0 868.7 0 823 0C777.3 0 731.7 0 686 0C640.3 0 594.7 0 548.8 0C503 0 457 0 411.2 0C365.3 0 319.7 0 274 0C228.3 0 182.7 0 137 0C91.3 0 45.7 0 22.8 0L0 0Z" fill="#730000"></path><path d="M0 95L22.8 101.5C45.7 108 91.3 121 137 131.5C182.7 142 228.3 150 274 145.3C319.7 140.7 365.3 123.3 411.2 120.8C457 118.3 503 130.7 548.8 133C594.7 135.3 640.3 127.7 686 125C731.7 122.3 777.3 124.7 823 122.3C868.7 120 914.3 113 937.2 109.5L960 106L960 0L937.2 0C914.3 0 868.7 0 823 0C777.3 0 731.7 0 686 0C640.3 0 594.7 0 548.8 0C503 0 457 0 411.2 0C365.3 0 319.7 0 274 0C228.3 0 182.7 0 137 0C91.3 0 45.7 0 22.8 0L0 0Z" fill="#a60000"></path><path d="M0 92L22.8 95C45.7 98 91.3 104 137 105C182.7 106 228.3 102 274 104.2C319.7 106.3 365.3 114.7 411.2 116.5C457 118.3 503 113.7 548.8 114.3C594.7 115 640.3 121 686 117C731.7 113 777.3 99 823 97.3C868.7 95.7 914.3 106.3 937.2 111.7L960 117L960 0L937.2 0C914.3 0 868.7 0 823 0C777.3 0 731.7 0 686 0C640.3 0 594.7 0 548.8 0C503 0 457 0 411.2 0C365.3 0 319.7 0 274 0C228.3 0 182.7 0 137 0C91.3 0 45.7 0 22.8 0L0 0Z" fill="#d20601"></path><path d="M0 77L22.8 75.2C45.7 73.3 91.3 69.7 137 65C182.7 60.3 228.3 54.7 274 48.8C319.7 43 365.3 37 411.2 38.7C457 40.3 503 49.7 548.8 55.2C594.7 60.7 640.3 62.3 686 57C731.7 51.7 777.3 39.3 823 34.8C868.7 30.3 914.3 33.7 937.2 35.3L960 37L960 0L937.2 0C914.3 0 868.7 0 823 0C777.3 0 731.7 0 686 0C640.3 0 594.7 0 548.8 0C503 0 457 0 411.2 0C365.3 0 319.7 0 274 0C228.3 0 182.7 0 137 0C91.3 0 45.7 0 22.8 0L0 0Z" fill="#ff1100"></path></svg>